# File created by Blade
# Date/Time:  Tue Apr 07 20:13:55 2015
# Frame Rate: 120.000 fps
#------------------------------------------------------
:FULLY-SPECIFIED
:DEGREES
2952
root 3.327193 32.744136 -10.690171 5.115598 -9.192442 -10.441100
Spine 7.890751 -14.336001 1.468507
Head -0.013201 -12.998037 11.426236
LeftShoulder 0.492110 35.818530 21.639127
LeftArm 72.507015 21.787231 -66.237424
LeftForeArm -20.844964 -0.000000 21.527859
LeftHand 8.793161 0.000000 4.726609
LeftHandThumb1 -26.253704 0.000000 33.147579
RightShoulder 3.011365 -5.871150 -16.234682
RightArm 19.384573 -8.457311 78.247505
RightForeArm 16.162422 -0.000000 35.877887
RightHand 4.616696 -0.000000 9.629676
RightHandThumb1 -24.326973 -0.000000 -32.862282
LeftUpLeg -11.378292 5.886192 3.030536
LeftLeg 15.830479 -0.000000 -0.000000
LeftFoot -12.527225 12.935142 -8.134880
LeftToeBase -8.309401 -0.000000 0.000000
RightUpLeg -83.134555 -15.054719 9.502282
RightLeg 103.803011 -0.000000 -0.000000
RightFoot 31.580295 -10.321309 -2.440908
RightToeBase 31.023774 -0.000000 -0.000000
2953
root 3.336763 32.745099 -10.682298 4.919082 -9.347641 -10.659124
Spine 8.132621 -14.302064 1.678100
Head -0.018974 -12.963959 11.364712
LeftShoulder 0.637464 35.694715 21.778055
LeftArm 72.693285 21.637968 -66.089934
LeftForeArm -20.720066 -0.000000 22.038442
LeftHand 8.987200 0.000000 4.421792
LeftHandThumb1 -26.253704 0.000000 33.147579
RightShoulder 3.085622 -5.690322 -16.131216
RightArm 19.634772 -8.315921 77.657222
RightForeArm 16.205792 -0.000000 36.292891
RightHand 4.585284 -0.000000 10.102087
RightHandThumb1 -24.326973 -0.000000 -32.862282
LeftUpLeg -11.146312 6.011778 3.214989
LeftLeg 15.890767 -0.000000 -0.000000
LeftFoot -12.569011 13.061848 -7.901308
LeftToeBase -8.363041 -0.000000 0.000000
RightUpLeg -83.989236 -15.051197 9.556881
RightLeg 104.701571 -0.000000 -0.000000
RightFoot 31.821765 -10.156825 -2.583932
RightToeBase 31.075317 -0.000000 -0.000000
2954
root 3.347308 32.746693 -10.673122 4.663587 -9.534391 -10.834139
Spine 8.437513 -14.256518 1.817961
Head 0.005381 -12.905088 11.310761
LeftShoulder 0.801673 35.568842 21.936344
LeftArm 72.870853 21.465037 -65.998260
LeftForeArm -20.625053 -0.000000 22.517074
LeftHand 8.914886 -0.000000 4.207905
LeftHandThumb1 -26.253704 0.000000 33.147579
RightShoulder 3.163553 -5.488717 -16.009446
RightArm 19.947233 -8.234299 77.094641
RightForeArm 15.959341 -0.000000 36.656516
RightHand 4.598199 0.000000 10.080663
RightHandThumb1 -24.326973 -0.000000 -32.862282
LeftUpLeg -10.838354 6.160689 3.374270
LeftLeg 15.922297 -0.000000 -0.000000
LeftFoot -12.579009 13.140033 -7.721082
LeftToeBase -8.525608 -0.000000 0.000000
RightUpLeg -84.769545 -15.060930 9.584869
RightLeg 105.556918 -0.000000 -0.000000
RightFoot 32.109519 -9.947064 -2.754951
RightToeBase 31.219995 -0.000000 -0.000000
2955
root 3.370803 32.748060 -10.662334 4.464842 -9.568897 -11.015417
Spine 8.655658 -14.407028 2.065840
Head 0.085049 -12.821196 11.108674
LeftShoulder 0.943061 35.440511 21.983736
LeftArm 73.079407 21.303441 -65.863054
LeftForeArm -20.647811 -0.000000 22.945790
LeftHand 8.876607 -0.000000 4.699718
LeftHandThumb1 -26.253704 0.000000 33.147579
RightShoulder 3.258296 -5.236848 -15.946868
RightArm 20.202345 -8.170134 76.481942
RightForeArm 15.880338 -0.000000 37.058244
RightHand 4.672509 0.000000 10.440833
RightHandThumb1 -24.326973 -0.000000 -32.862282
LeftUpLeg -10.611541 6.115352 3.533903
LeftLeg 15.977301 -0.000000 -0.000000
LeftFoot -12.580718 13.224476 -7.537850
LeftToeBase -8.660777 -0.000000 0.000000
RightUpLeg -85.597737 -15.252006 9.634056
RightLeg 106.404055 -0.000000 -0.000000
RightFoot 32.334141 -9.541516 -2.996135
RightToeBase 31.214719 -0.000000 -0.000000
